#!OML:ASF I:\Actors\actors\Patient Classification 2\Patient 1\Session 1\actor1.ASF
:FULLY-SPECIFIED
:DEGREES
394
root -0.493313 18.6511 6.01857 3.92525 5.50669 0.198998
lowerback 9.15346 1.50161 -0.500104
upperback -0.905902 2.03375 1.43414
thorax -6.15922 1.04233 1.49
lowerneck -11.0238 -5.83985 -6.63096
upperneck 30.8553 -8.44771 5.11841
head 12.5607 -3.87195 1.90628
rclavicle -4.12478e-015 2.82274e-014
rhumerus -57.323 4.33457 -86.9441
rradius 82.9347
rwrist -18.8537
rhand -12.684 -71.4606
rfingers 7.12502
rthumb 13.3978 -258.99
lclavicle -4.12478e-015 2.82274e-014
lhumerus -48.5633 -19.4669 101.514
lradius 81.6792
lwrist 34.5216
lhand -11.5088 -10.7801
lfingers 7.12502
lthumb 14.5303 18.6911
rfemur 4.62292 1.35105 14.1528
rtibia 9.54166e-015
rfoot -17.6644 -13.4683
rtoes -7.98264
lfemur -10.5404 -4.53282 -13.8225
ltibia 25.8083
lfoot -20.2722 10.1083
ltoes -55.9249
395
root -0.447325 18.649 6.02482 3.93411 5.54048 0.208372
lowerback 9.17002 1.51789 -0.690461
upperback -0.93397 2.0306 1.37123
thorax -6.20258 1.04636 1.53098
lowerneck -10.9918 -5.77515 -6.55276
upperneck 30.8985 -8.38042 5.13457
head 12.5631 -3.8315 1.91071
rclavicle -1.47101e-014 -3.18055e-015
rhumerus -57.824 4.29242 -87.211
rradius 83.0762
rwrist -18.5081
rhand -11.7269 -71.9821
rfingers 7.12502
rthumb 14.3201 -258.532
lclavicle -1.47101e-014 -3.18055e-015
lhumerus -48.6695 -19.3046 101.435
lradius 81.7393
lwrist 34.4783
lhand -11.5698 -10.8612
lfingers 7.12502
lthumb 14.4715 18.6142
rfemur 4.66895 1.35137 13.9866
rtibia 1.59028e-015
rfoot -17.8155 -13.4248
rtoes -7.72969
lfemur -10.5949 -4.54267 -13.9935
ltibia 25.9544
lfoot -20.3887 10.0917
ltoes -55.7995
396
root -0.402477 18.6474 6.03008 3.97398 5.59117 0.228084
lowerback 9.18493 1.5597 -0.880593
upperback -0.978327 2.0606 1.29405
thorax -6.26291 1.06666 1.55185
lowerneck -10.9563 -5.75257 -6.5738
upperneck 30.9816 -8.40252 5.30491
head 12.6015 -3.8224 1.97802
rclavicle 4.96962e-014 2.46493e-014
rhumerus -58.2027 4.38988 -87.5867
rradius 82.9351
rwrist -19.1789
rhand -16.2119 -69.7195
rfingers 7.12502
rthumb 9.99575 -260.538
lclavicle 4.96962e-014 2.46493e-014
lhumerus -48.7966 -19.2367 101.393
lradius 81.8371
lwrist 34.424
lhand -11.6409 -10.7601
lfingers 7.12502
lthumb 14.4031 18.7202
rfemur 4.67742 1.33088 13.8128
rtibia -4.77083e-015
rfoot -17.8966 -13.4039
rtoes -7.70223
lfemur -10.7031 -4.47971 -14.162
ltibia 26.1059
lfoot -20.4388 10.0141
ltoes -55.7388
397
root -0.359041 18.6465 6.03321 4.02406 5.63427 0.213111
lowerback 9.17013 1.63067 -1.07217
upperback -0.984779 2.13085 1.24684
thorax -6.26929 1.10701 1.60016
lowerneck -10.9599 -5.76314 -6.51221
upperneck 31.0715 -8.44796 5.34239
head 12.6416 -3.82913 1.97588
rclavicle 1.04859e-014 -1.66979e-014
rhumerus -58.2822 4.40844 -87.7482
rradius 82.9464
rwrist -19.052
rhand -14.954 -70.6494
rfingers 7.12502
rthumb 11.2091 -259.67
lclavicle 1.04859e-014 -1.66979e-014
lhumerus -48.8837 -19.1826 101.374
lradius 81.9681
lwrist 34.3496
lhand -11.5321 -10.5537
lfingers 7.12502
lthumb 14.5079 18.9191
rfemur 4.66378 1.3183 13.6823
rtibia -9.54166e-015
rfoot -17.9512 -13.4034
rtoes -7.75911
lfemur -10.8424 -4.37412 -14.2848
ltibia 26.2746
lfoot -20.4797 9.88269
ltoes -55.7043
398
root -0.317327 18.6461 6.03428 4.07045 5.68657 0.181522
lowerback 9.19363 1.70791 -1.23088
upperback -0.988058 2.21262 1.19566
thorax -6.29346 1.15183 1.62313
lowerneck -11.0115 -5.77062 -6.36058
upperneck 31.2337 -8.47258 5.25705
head 12.709 -3.82924 1.91361
rclavicle 2.77802e-014 2.22639e-014
rhumerus -58.1556 4.44797 -87.9023
rradius 82.9077
rwrist -19.1483
rhand -13.4551 -71.2833
rfingers 7.12502
rthumb 12.6544 -259.12
lclavicle 2.77802e-014 2.22639e-014
lhumerus -48.9546 -19.1 101.343
lradius 82.0411
lwrist 34.2477
lhand -11.402 -10.496
lfingers 7.12502
lthumb 14.6332 18.9677
rfemur 4.65453 1.29766 13.577
rtibia 3.18055e-015
rfoot -18.0256 -13.3995
rtoes -7.79966
lfemur -10.9888 -4.3393 -14.3885
ltibia 26.4618
lfoot -20.5573 9.77776
ltoes -55.6562
399
root -0.277308 18.6462 6.0333 4.13757 5.77498 0.18475
lowerback 9.26547 1.78153 -1.38844
upperback -1.02318 2.28915 1.14226
thorax -6.37875 1.19455 1.64196
lowerneck -11.0129 -5.76116 -6.32248
upperneck 31.4015 -8.4762 5.26142
head 12.7778 -3.82286 1.90982
rclavicle 2.28602e-015 -8.74653e-015
rhumerus -57.9201 4.55412 -87.9665
rradius 82.7946
rwrist -19.2208
rhand -13.6808 -71.4666
rfingers 7.12502
rthumb 12.4369 -258.923
lclavicle 2.28602e-015 -8.74653e-015
lhumerus -49.0599 -19.0132 101.372
lradius 82.0607
lwrist 34.1595
lhand -11.3744 -10.5533
lfingers 7.12502
lthumb 14.6598 18.9085
rfemur 4.61952 1.23656 13.4354
rtibia 6.36111e-015
rfoot -18.0863 -13.4004
rtoes -7.75429
lfemur -11.1688 -4.35504 -14.5285
ltibia 26.6551
lfoot -20.6377 9.71835
ltoes -55.6344
400
root -0.23894 18.6469 6.03226 4.21406 5.86634 0.196192
lowerback 9.18502 1.86044 -1.65797
upperback -0.963338 2.36688 1.18011
thorax -6.28629 1.24192 1.82485
lowerneck -11.0163 -5.75358 -6.35994
upperneck 31.4379 -8.44576 5.23736
head 12.7923 -3.81502 1.91199
rclavicle -9.0944e-015 7.15625e-015
rhumerus -57.383 4.85352 -87.8296
rradius 82.5393
rwrist -19.3002
rhand -14.4418 -71.6983
rfingers 7.12502
rthumb 11.703 -258.649
lclavicle -9.0944e-015 7.15625e-015
lhumerus -49.0364 -18.8636 101.487
lradius 82.0917
lwrist 34.1026
lhand -11.2707 -10.5316
lfingers 7.12502
lthumb 14.7597 18.9229
rfemur 4.56409 1.17041 13.2874
rtibia 2.70347e-014
rfoot -18.1148 -13.4132
rtoes -7.75945
lfemur -11.3657 -4.26863 -14.6682
ltibia 26.8394
lfoot -20.6683 9.63417
ltoes -55.6849
401
root -0.202588 18.6477 6.03137 4.26848 5.97147 0.198276
lowerback 8.84626 1.91223 -2.1481
upperback -0.710238 2.39688 1.35263
thorax -5.85756 1.2704 2.29059
lowerneck -11.1346 -5.7355 -6.35478
upperneck 31.3137 -8.35255 5.08356
head 12.7501 -3.79008 1.86187
rclavicle 1.98785e-015 -4.37326e-015
rhumerus -56.3723 5.41195 -87.5442
rradius 82.1814
rwrist -19.4134
rhand -14.6049 -71.9769
rfingers 7.12502
rthumb 11.5458 -258.361
lclavicle 1.98785e-015 -4.37326e-015
lhumerus -48.7204 -18.528 101.59
lradius 82.1282
lwrist 34.0206
lhand -11.1499 -10.511
lfingers 7.12502
lthumb 14.8761 18.9349
rfemur 4.53784 1.0933 13.1637
rtibia -1.59028e-015
rfoot -18.1102 -13.452
rtoes -8.05868
lfemur -11.5439 -4.1388 -14.7848
ltibia 27.0157
lfoot -20.6814 9.45282
ltoes -55.6966
402
root -0.167312 18.6487 6.02907 4.32286 6.10613 0.223838
lowerback 8.94299 2.03668 -2.30452
upperback -0.728235 2.54087 1.29713
thorax -5.94443 1.34624 2.29672
lowerneck -11.0635 -5.81043 -6.32219
upperneck 31.3628 -8.47925 5.10614
head 12.7646 -3.83877 1.84841
rclavicle 7.20594e-014 -9.93923e-015
rhumerus -55.7006 5.51979 -87.4114
rradius 81.9885
rwrist -19.5089
rhand -14.2278 -72.3613
rfingers 7.12502
rthumb 11.9095 -257.997
lclavicle 7.20594e-014 -9.93923e-015
lhumerus -48.9032 -18.5724 101.702
lradius 82.2257
lwrist 33.9235
lhand -11.0342 -10.4717
lfingers 7.12502
lthumb 14.9876 18.9659
rfemur 4.52528 0.985541 13.0195
rtibia -3.18055e-014
rfoot -18.1208 -13.5016
rtoes -8.32785
lfemur -11.7229 -4.12666 -14.9257
ltibia 27.1939
lfoot -20.7213 9.2883
ltoes -55.6257
403
root -0.133052 18.6487 6.02531 4.38602 6.29933 0.233207
lowerback 9.0902 2.14482 -2.41046
upperback -0.754825 2.6685 1.26468
thorax -6.06722 1.41326 2.29857
lowerneck -11.046 -5.90732 -6.40649
upperneck 31.4568 -8.62715 5.18266
head 12.8205 -3.90186 1.87108
rclavicle -6.48038e-014 -9.93923e-015
rhumerus -54.9409 5.74171 -87.2189
rradius 81.8719
rwrist -19.7505
rhand -13.6959 -72.607
rfingers 7.12502
rthumb 12.4223 -257.782
lclavicle -6.48038e-014 -9.93923e-015
lhumerus -49.1079 -18.6424 101.836
lradius 82.3664
lwrist 33.8528
lhand -10.964 -10.2869
lfingers 7.12502
lthumb 15.0552 19.1457
rfemur 4.51416 0.819818 12.8936
rtibia 2.06736e-014
rfoot -18.1844 -13.4968
rtoes -8.25323
lfemur -11.9305 -4.18533 -15.0416
ltibia 27.3779
lfoot -20.7232 9.18375
ltoes -55.5792
